<svg width="70" height="70" viewBox="0 0 70 70" fill="none" xmlns="http://www.w3.org/2000/svg">
<circle cx="37.5033" cy="32.0432" r="21.5329" fill="white"/>
<path d="M34.9716 63.7971C30.9737 63.7971 27.2116 63.0334 23.6852 61.5059C20.1588 59.9973 17.0473 57.8947 14.3506 55.198C11.6728 52.5013 9.57019 49.3898 8.04271 45.8634C6.51523 42.337 5.75149 38.5749 5.75149 34.577C5.75149 30.5792 6.51523 26.8171 8.04271 23.2907C9.57019 19.7643 11.6728 16.6622 14.3506 13.9844C17.0473 11.2877 20.1494 9.17564 23.6569 7.64817C27.1833 6.12069 30.9455 5.35695 34.9433 5.35695C38.96 5.35695 42.7316 6.12069 46.258 7.64817C49.7844 9.17564 52.8959 11.2877 55.5926 13.9844C58.2892 16.6622 60.4013 19.7643 61.9288 23.2907C63.4562 26.8171 64.22 30.5792 64.22 34.577C64.22 38.5749 63.4562 42.337 61.9288 45.8634C60.4013 49.3898 58.2892 52.5013 55.5926 55.198C52.8959 57.8947 49.7844 59.9973 46.258 61.5059C42.7316 63.0334 38.9694 63.7971 34.9716 63.7971ZM31.8318 48.5224C32.3598 48.5224 32.8407 48.3998 33.2744 48.1546C33.727 47.9095 34.123 47.5418 34.4624 47.0515L47.7006 26.4022C47.8892 26.1005 48.0589 25.7799 48.2097 25.4405C48.3606 25.0822 48.436 24.7427 48.436 24.4221C48.436 23.6867 48.1532 23.0927 47.5874 22.6401C47.0406 22.1875 46.4183 21.9612 45.7205 21.9612C44.7965 21.9612 44.0327 22.4515 43.4293 23.4321L31.7186 42.1579L26.2876 35.2559C25.9104 34.7845 25.5427 34.4545 25.1844 34.2659C24.8261 34.0773 24.4207 33.983 23.9681 33.983C23.2515 33.983 22.6386 34.247 22.1295 34.7751C21.6392 35.2842 21.394 35.8971 21.394 36.6137C21.394 36.972 21.46 37.3209 21.592 37.6603C21.724 37.9997 21.9126 38.3297 22.1577 38.6503L29.088 47.0797C29.5028 47.5889 29.9271 47.9566 30.3609 48.1829C30.7946 48.4092 31.2849 48.5224 31.8318 48.5224Z" fill="#FF5C00"/>
</svg>
