<svg width="28" height="28" viewBox="0 0 28 29" fill="none" xmlns="http://www.w3.org/2000/svg">
<path d="M20.9698 14.3308C20.9698 14.1875 20.9434 14.0555 20.8906 13.9348C20.8378 13.8066 20.7586 13.6897 20.653 13.5841L11.6805 4.80388C11.4768 4.60776 11.2317 4.5097 10.945 4.5097C10.7489 4.5097 10.5754 4.55496 10.4246 4.64547C10.2662 4.73599 10.1417 4.86045 10.0512 5.01886C9.95312 5.16972 9.90409 5.34321 9.90409 5.53933C9.90409 5.81843 10.0059 6.06358 10.2096 6.27478L18.4467 14.3308L10.2096 22.3869C10.0059 22.5981 9.90409 22.8432 9.90409 23.1223C9.90409 23.3184 9.95312 23.4919 10.0512 23.6428C10.1417 23.8012 10.2662 23.9256 10.4246 24.0162C10.5754 24.1067 10.7489 24.1519 10.945 24.1519C11.2317 24.1519 11.4768 24.0501 11.6805 23.8464L20.653 15.0776C20.7586 14.972 20.8378 14.8588 20.8906 14.7381C20.9434 14.6099 20.9698 14.4741 20.9698 14.3308Z" fill="#8B8B8B"/>
</svg>