<svg width="24" height="24" viewBox="0 0 24 24" fill="none" xmlns="http://www.w3.org/2000/svg">
<path d="M11.9978 17.9741C11.875 17.9741 11.7619 17.9515 11.6584 17.9062C11.5485 17.861 11.4483 17.7931 11.3578 17.7026L3.8319 10.0119C3.6638 9.83729 3.57974 9.62716 3.57974 9.38147C3.57974 9.21336 3.61854 9.06466 3.69612 8.93535C3.77371 8.79957 3.88039 8.69289 4.01617 8.6153C4.14548 8.53125 4.29418 8.48923 4.46229 8.48923C4.70151 8.48923 4.91164 8.57651 5.09267 8.75108L11.9978 15.8114L18.903 8.75108C19.0841 8.57651 19.2942 8.48923 19.5334 8.48923C19.7015 8.48923 19.8502 8.53125 19.9795 8.6153C20.1153 8.69289 20.222 8.79957 20.2996 8.93535C20.3772 9.06466 20.4159 9.21336 20.4159 9.38147C20.4159 9.62716 20.3287 9.83729 20.1541 10.0119L12.6379 17.7026C12.5474 17.7931 12.4504 17.861 12.347 17.9062C12.2371 17.9515 12.1207 17.9741 11.9978 17.9741Z" fill="#333333"/>
</svg>
