<svg width="25" height="24" viewBox="0 0 25 24" fill="none" xmlns="http://www.w3.org/2000/svg">
<path d="M5.1681 17.7974C4.12069 17.7974 3.32866 17.5323 2.79203 17.0022C2.25539 16.472 1.98707 15.6864 1.98707 14.6455V4.76293C1.98707 3.72198 2.25539 2.93642 2.79203 2.40625C3.32866 1.87608 4.12069 1.61099 5.1681 1.61099H14.9925C16.0399 1.61099 16.8319 1.87931 17.3685 2.41595C17.9052 2.94612 18.1735 3.72845 18.1735 4.76293V7.04203H16.2629V4.9278C16.2629 4.45582 16.1433 4.10345 15.9041 3.87069C15.6649 3.63147 15.3222 3.51185 14.8761 3.51185H5.28448C4.8319 3.51185 4.48599 3.63147 4.24677 3.87069C4.01401 4.10345 3.89763 4.45582 3.89763 4.9278V14.4806C3.89763 14.9526 4.01401 15.3082 4.24677 15.5474C4.48599 15.7802 4.8319 15.8966 5.28448 15.8966H7.75754V17.7974H5.1681ZM9.99785 22.4138C8.95043 22.4138 8.15841 22.1487 7.62177 21.6185C7.08513 21.0884 6.81681 20.3028 6.81681 19.2619V9.36961C6.81681 8.33513 7.08513 7.5528 7.62177 7.02263C8.15841 6.48599 8.95043 6.21767 9.99785 6.21767H19.8222C20.8696 6.21767 21.6616 6.48599 22.1983 7.02263C22.7349 7.55927 23.0032 8.3416 23.0032 9.36961V19.2619C23.0032 20.2963 22.7349 21.0787 22.1983 21.6088C21.6616 22.1455 20.8696 22.4138 19.8222 22.4138H9.99785ZM10.1142 20.5129H19.7058C20.1519 20.5129 20.4946 20.3933 20.7338 20.1541C20.9731 19.9213 21.0927 19.569 21.0927 19.097V9.54418C21.0927 9.0722 20.9731 8.71983 20.7338 8.48707C20.4946 8.24785 20.1519 8.12823 19.7058 8.12823H10.1142C9.66164 8.12823 9.31573 8.24785 9.07651 8.48707C8.83728 8.71983 8.71767 9.0722 8.71767 9.54418V19.097C8.71767 19.569 8.83728 19.9213 9.07651 20.1541C9.31573 20.3933 9.66164 20.5129 10.1142 20.5129Z" fill="#3D3D3D"/>
</svg>
