<svg width="17" height="17" viewBox="0 0 17 17" fill="none" xmlns="http://www.w3.org/2000/svg">
<path d="M8.5 16.8281C7.41146 16.8281 6.38542 16.6198 5.42188 16.2031C4.46354 15.7865 3.61719 15.2109 2.88281 14.4766C2.14844 13.7422 1.57292 12.8958 1.15625 11.9375C0.739583 10.974 0.53125 9.94792 0.53125 8.85938C0.53125 7.77083 0.739583 6.7474 1.15625 5.78906C1.57292 4.82552 2.14583 3.97656 2.875 3.24219C3.60938 2.50781 4.45573 1.93229 5.41406 1.51562C6.3776 1.09896 7.40365 0.890625 8.49219 0.890625C9.58073 0.890625 10.6068 1.09896 11.5703 1.51562C12.5339 1.93229 13.3828 2.50781 14.1172 3.24219C14.8516 3.97656 15.4271 4.82552 15.8438 5.78906C16.2604 6.7474 16.4688 7.77083 16.4688 8.85938C16.4688 9.94792 16.2604 10.974 15.8438 11.9375C15.4271 12.8958 14.8516 13.7422 14.1172 14.4766C13.3828 15.2109 12.5339 15.7865 11.5703 16.2031C10.612 16.6198 9.58854 16.8281 8.5 16.8281ZM8.5 15.5C9.42188 15.5 10.2839 15.3281 11.0859 14.9844C11.888 14.6406 12.5938 14.1667 13.2031 13.5625C13.8125 12.9531 14.2865 12.2474 14.625 11.4453C14.9688 10.6432 15.1406 9.78125 15.1406 8.85938C15.1406 7.9375 14.9688 7.07552 14.625 6.27344C14.2812 5.47135 13.8047 4.76562 13.1953 4.15625C12.5911 3.54688 11.8854 3.07292 11.0781 2.73438C10.276 2.39062 9.41406 2.21875 8.49219 2.21875C7.57031 2.21875 6.70833 2.39062 5.90625 2.73438C5.10417 3.07292 4.40104 3.54688 3.79688 4.15625C3.19271 4.76562 2.71875 5.47135 2.375 6.27344C2.03646 7.07552 1.86719 7.9375 1.86719 8.85938C1.86719 9.78125 2.03646 10.6432 2.375 11.4453C2.71875 12.2474 3.19271 12.9531 3.79688 13.5625C4.40625 14.1667 5.11198 14.6406 5.91406 14.9844C6.71615 15.3281 7.57812 15.5 8.5 15.5ZM7.13281 13.2266C6.97135 13.2266 6.83594 13.1745 6.72656 13.0703C6.61719 12.9661 6.5625 12.8359 6.5625 12.6797C6.5625 12.5234 6.61719 12.3932 6.72656 12.2891C6.83594 12.1849 6.97135 12.1328 7.13281 12.1328H8.10156V8.54688H7.26562C7.10417 8.54688 6.96875 8.49479 6.85938 8.39062C6.75 8.28646 6.69531 8.15625 6.69531 8C6.69531 7.84375 6.75 7.71354 6.85938 7.60938C6.96875 7.50521 7.10417 7.45312 7.26562 7.45312H8.73438C8.93229 7.45312 9.08333 7.51823 9.1875 7.64844C9.29167 7.77344 9.34375 7.94271 9.34375 8.15625V12.1328H10.3125C10.474 12.1328 10.6094 12.1849 10.7188 12.2891C10.8281 12.3932 10.8828 12.5234 10.8828 12.6797C10.8828 12.8359 10.8281 12.9661 10.7188 13.0703C10.6094 13.1745 10.474 13.2266 10.3125 13.2266H7.13281ZM8.42969 6.14844C8.14844 6.14844 7.90885 6.04948 7.71094 5.85156C7.51302 5.65365 7.41406 5.41406 7.41406 5.13281C7.41406 4.84635 7.51302 4.60417 7.71094 4.40625C7.90885 4.20833 8.14844 4.10938 8.42969 4.10938C8.71615 4.10938 8.95573 4.20833 9.14844 4.40625C9.34635 4.60417 9.44531 4.84635 9.44531 5.13281C9.44531 5.41406 9.34635 5.65365 9.14844 5.85156C8.95573 6.04948 8.71615 6.14844 8.42969 6.14844Z" fill="#A5A5A5"/>
</svg>
