<svg width="25" height="24" viewBox="0 0 25 24" fill="none" xmlns="http://www.w3.org/2000/svg">
<path d="M5.80443 21.9123C5.45363 21.9123 5.22984 21.7974 5.13306 21.5675C5.04234 21.3437 5.08468 21.1169 5.26008 20.8871C5.375 20.7359 5.53831 20.5333 5.75 20.2792C5.96774 20.0312 6.19153 19.7591 6.42137 19.4627C6.65121 19.1663 6.85081 18.879 7.02016 18.6008C7.05645 18.5343 7.0625 18.4708 7.03831 18.4103C7.02016 18.3438 6.97782 18.2923 6.91129 18.256C5.94355 17.7359 5.10585 17.1159 4.39819 16.3962C3.69657 15.6704 3.15524 14.872 2.77419 14.001C2.39919 13.13 2.21169 12.2107 2.21169 11.2429C2.21169 10.0998 2.4748 9.02924 3.00101 8.03125C3.53327 7.03327 4.26814 6.15928 5.20564 5.40928C6.14919 4.65323 7.24395 4.06351 8.48992 3.64012C9.73589 3.21069 11.0726 2.99597 12.5 2.99597C13.9274 2.99597 15.2641 3.21069 16.5101 3.64012C17.756 4.06351 18.8478 4.65323 19.7853 5.40928C20.7288 6.15928 21.4637 7.03327 21.9899 8.03125C22.5222 9.02924 22.7883 10.0998 22.7883 11.2429C22.7883 12.1442 22.622 13.006 22.2893 13.8286C21.9567 14.6512 21.4758 15.4073 20.8468 16.0968C20.2177 16.7802 19.4556 17.376 18.5605 17.8841C17.6714 18.3921 16.6673 18.7853 15.5484 19.0635C14.4294 19.3417 13.2167 19.4808 11.9103 19.4808C11.8558 19.4808 11.7984 19.4778 11.7379 19.4718C11.6774 19.4718 11.6169 19.4687 11.5565 19.4627C11.496 19.4627 11.4325 19.4748 11.3659 19.499C11.2994 19.5232 11.2268 19.5625 11.1482 19.6169C10.7611 19.8952 10.3165 20.1673 9.81452 20.4335C9.31855 20.7056 8.81351 20.9536 8.29939 21.1774C7.79133 21.4012 7.31653 21.5796 6.875 21.7127C6.43347 21.8458 6.07661 21.9123 5.80443 21.9123Z" fill="#333333"/>
</svg>
