<svg width="29" height="28" viewBox="0 0 29 28" fill="none" xmlns="http://www.w3.org/2000/svg">
<g clip-path="url(#clip0_226_1968)">
<path d="M24.7061 13.3891L14.8933 2.93997C14.3842 2.40543 13.5442 2.40543 13.0352 2.93997L3.22243 13.3891C2.4588 14.1909 3.03152 15.5145 4.1388 15.5145C4.49516 15.5145 4.82607 15.3745 5.06789 15.1072L13.9515 5.65088L22.8606 15.1072C23.1024 15.3618 23.4333 15.5018 23.7897 15.5018C24.897 15.5018 25.4697 14.1782 24.7061 13.3763V13.3891Z" fill="current"/>
<path d="M13.9642 7.87822L5.71693 16.66C5.50056 16.9019 5.37329 17.2073 5.37329 17.5255V23.1255C5.37329 23.8255 5.94602 24.3982 6.64602 24.3982H21.2951C21.9951 24.3982 22.5678 23.8255 22.5678 23.1255V17.5128C22.5678 17.1946 22.4406 16.8764 22.2242 16.6346L13.9769 7.86549L13.9642 7.87822Z" fill="current"/>
</g>
<defs>
<clipPath id="clip0_226_1968">
<rect width="22.1836" height="21.8527" fill="white" transform="translate(2.87866 2.54544)"/>
</clipPath>
</defs>
</svg>
