<svg width="28" height="28" viewBox="0 0 28 28" fill="none" xmlns="http://www.w3.org/2000/svg">
<path d="M2.99194 23.1643V8.91734C2.99194 8.56452 3.06603 8.26109 3.21421 8.00706C3.36946 7.74597 3.60585 7.52722 3.92339 7.35081L8.94052 4.47177C9.03226 4.41532 9.13105 4.3624 9.2369 4.313C9.34274 4.25655 9.44153 4.20716 9.53327 4.16482V21.7036L5.0877 24.1064C4.75605 24.2898 4.45968 24.3816 4.19859 24.3816C3.81754 24.3816 3.52117 24.2757 3.30948 24.064C3.09778 23.8523 2.99194 23.5524 2.99194 23.1643ZM10.9834 21.5025V3.98488C11.0822 4.00605 11.1809 4.0378 11.2797 4.08014C11.3856 4.12248 11.4844 4.17187 11.5761 4.22833L16.8049 7.4249V24.6991C16.7273 24.6779 16.6462 24.6497 16.5615 24.6144C16.4839 24.5791 16.4027 24.5403 16.318 24.498L10.9834 21.5025ZM18.2445 24.6673V7.22379L22.9123 4.63054C23.244 4.44708 23.5403 4.35534 23.8014 4.35534C24.1825 4.35534 24.4788 4.46119 24.6905 4.67288C24.9022 4.88458 25.0081 5.18448 25.0081 5.57258V19.8301C25.0081 20.183 24.9304 20.4899 24.7752 20.751C24.627 21.005 24.3942 21.2203 24.0766 21.3967L18.562 24.5297C18.5126 24.558 18.4597 24.5827 18.4032 24.6038C18.3538 24.6321 18.3009 24.6532 18.2445 24.6673Z" fill="current"/>
</svg>
