<svg width="24" height="24" viewBox="0 0 24 24" fill="none" xmlns="http://www.w3.org/2000/svg">
<path d="M11.1714 19.5024C10.5622 19.5024 10.1337 19.4146 9.88585 19.2391C9.6432 19.0687 9.52188 18.8131 9.52188 18.4724C9.52188 17.9768 9.6716 17.4527 9.97104 16.9003C10.2705 16.3479 10.7041 15.8316 11.2721 15.3515C11.84 14.8662 12.524 14.4738 13.3242 14.1744C14.1296 13.8698 15.0331 13.7175 16.0347 13.7175C17.0414 13.7175 17.9449 13.8698 18.7451 14.1744C19.5505 14.4738 20.2346 14.8662 20.7973 15.3515C21.3652 15.8316 21.7989 16.3479 22.0984 16.9003C22.403 17.4527 22.5553 17.9768 22.5553 18.4724C22.5553 18.8131 22.4314 19.0687 22.1835 19.2391C21.9357 19.4146 21.5072 19.5024 20.898 19.5024H11.1714ZM16.0424 12.3313C15.4849 12.3313 14.9712 12.1816 14.5014 11.8821C14.0315 11.5775 13.6547 11.1697 13.3707 10.6586C13.0868 10.1423 12.9448 9.56405 12.9448 8.92387C12.9448 8.29401 13.0868 7.72611 13.3707 7.22016C13.6598 6.71421 14.0393 6.31409 14.5091 6.01981C14.9789 5.72554 15.49 5.5784 16.0424 5.5784C16.5949 5.5784 17.106 5.72296 17.5758 6.01207C18.0456 6.30119 18.4225 6.69872 18.7064 7.20467C18.9904 7.70546 19.1324 8.27336 19.1324 8.90838C19.1324 9.55372 18.9904 10.1345 18.7064 10.6508C18.4225 11.1671 18.0456 11.5775 17.5758 11.8821C17.106 12.1816 16.5949 12.3313 16.0424 12.3313ZM2.80771 19.5024C2.31724 19.5024 1.96618 19.4069 1.7545 19.2158C1.54799 19.03 1.44474 18.7641 1.44474 18.4182C1.44474 17.8813 1.57639 17.3366 1.83969 16.7842C2.10299 16.2318 2.47987 15.7232 2.97033 15.2586C3.46596 14.7888 4.06226 14.4119 4.75923 14.1279C5.46136 13.8388 6.24869 13.6943 7.12119 13.6943C7.84398 13.6943 8.48416 13.7898 9.04174 13.9808C9.60448 14.1667 10.1027 14.4041 10.5364 14.6933C10.1182 15.0185 9.74904 15.3954 9.42895 15.8239C9.11402 16.2472 8.8662 16.6861 8.68551 17.1404C8.50481 17.5947 8.4093 18.0284 8.39898 18.4414C8.38865 18.8544 8.48416 19.2081 8.68551 19.5024H2.80771ZM7.12119 12.5094C6.64106 12.5094 6.19448 12.3778 5.78146 12.1145C5.3736 11.8512 5.04576 11.4949 4.79795 11.0458C4.55014 10.5966 4.42623 10.0958 4.42623 9.5434C4.42107 8.99098 4.54497 8.49536 4.79795 8.05652C5.05093 7.61769 5.38134 7.27178 5.7892 7.01881C6.20222 6.76067 6.64622 6.6316 7.12119 6.6316C7.60133 6.6316 8.04533 6.75809 8.45318 7.01106C8.8662 7.25888 9.19662 7.6022 9.44443 8.04104C9.69225 8.47471 9.81615 8.97033 9.81615 9.52791C9.81615 10.0855 9.69225 10.5914 9.44443 11.0458C9.19662 11.4949 8.86879 11.8512 8.46093 12.1145C8.05307 12.3778 7.60649 12.5094 7.12119 12.5094Z" fill="black"/>
</svg>
