<svg width="24" height="24" viewBox="0 0 24 24" fill="none" xmlns="http://www.w3.org/2000/svg">
<path d="M3.88254 11.9978C3.88254 11.7004 3.98922 11.445 4.20259 11.2317C4.41595 11.0119 4.67134 10.9019 4.96875 10.9019H10.9138V4.9666C10.9138 4.66918 11.0205 4.41379 11.2338 4.20043C11.4472 3.98707 11.7026 3.88039 12 3.88039C12.3039 3.88039 12.5625 3.98707 12.7759 4.20043C12.9892 4.41379 13.0959 4.66918 13.0959 4.9666V10.9019H19.0312C19.3287 10.9019 19.5841 11.0119 19.7974 11.2317C20.0108 11.445 20.1175 11.7004 20.1175 11.9978C20.1175 12.3017 20.0108 12.5603 19.7974 12.7737C19.5841 12.9806 19.3287 13.0841 19.0312 13.0841H13.0959V19.0388C13.0959 19.3297 12.9892 19.5819 12.7759 19.7953C12.5625 20.0086 12.3039 20.1153 12 20.1153C11.7026 20.1153 11.4472 20.0086 11.2338 19.7953C11.0205 19.5819 10.9138 19.3297 10.9138 19.0388V13.0841H4.96875C4.67134 13.0841 4.41595 12.9806 4.20259 12.7737C3.98922 12.5603 3.88254 12.3017 3.88254 11.9978Z" fill="#F7F7F7"/>
</svg>
