<svg width="29" height="28" viewBox="0 0 29 28" fill="none" xmlns="http://www.w3.org/2000/svg">
<path d="M6.10438 13.9161H23.6306V15.9686C23.6306 20.8049 19.704 24.7318 14.8673 24.7318C10.0309 24.7318 6.104 20.8053 6.104 15.9686V13.9161H6.10438Z" fill="#C1C1C1"/>
<path d="M9.26766 15.7801L3.56689 13.7052L3.13464 14.8928L8.8354 16.9677L9.26766 15.7801Z" fill="current"/>
<path d="M20.4977 16.9679L26.1985 14.893L25.7662 13.7054L20.0655 15.7803L20.4977 16.9679Z" fill="current"/>
<path d="M23.6304 12.9867L8.45224 4.22358C9.09405 3.11195 10.5173 2.73059 11.6289 3.3724L22.7792 9.81001C23.8908 10.4518 24.2722 11.875 23.6304 12.9867Z" fill="#C1C1C1"/>
<path d="M19.4271 6.59535L16.0886 4.66789L15.5199 5.65289L18.8584 7.58035L19.4271 6.59535Z" fill="current"/>
<circle cx="10.0878" cy="13.9163" r="3.30375" stroke="#C1C1C1" stroke-width="1.16667"/>
<circle cx="16.2494" cy="14.3941" r="2.82595" stroke="#C1C1C1" stroke-width="1.16667"/>
</svg>
