<svg width="24" height="25" viewBox="0 0 24 25" fill="none" xmlns="http://www.w3.org/2000/svg">
<path d="M2.4181 10.7328C2.4181 9.64655 2.62177 8.62823 3.02909 7.6778C3.44289 6.72091 4.01185 5.88039 4.73599 5.15625C5.46013 4.42565 6.29741 3.85668 7.24784 3.44935C8.20474 3.04203 9.22629 2.83836 10.3125 2.83836C11.4052 2.83836 12.4267 3.04203 13.3772 3.44935C14.3341 3.85668 15.1746 4.42565 15.8987 5.15625C16.6228 5.88039 17.1886 6.72091 17.5959 7.6778C18.0097 8.62823 18.2166 9.64655 18.2166 10.7328C18.2166 11.5862 18.0841 12.3976 17.819 13.167C17.5603 13.9364 17.2015 14.6379 16.7425 15.2716L21.1649 19.7134C21.3006 19.8427 21.4009 19.9946 21.4655 20.1692C21.5366 20.3437 21.5722 20.528 21.5722 20.722C21.5722 20.9935 21.5108 21.2392 21.3879 21.4591C21.2651 21.6789 21.097 21.8502 20.8836 21.9731C20.6703 22.1024 20.4246 22.167 20.1466 22.167C19.9526 22.167 19.7651 22.1315 19.5841 22.0603C19.4095 21.9957 19.2511 21.8922 19.1088 21.75L14.6573 17.2985C14.0366 17.7123 13.3578 18.0388 12.6207 18.278C11.8901 18.5108 11.1207 18.6272 10.3125 18.6272C9.22629 18.6272 8.20474 18.4235 7.24784 18.0162C6.29741 17.6088 5.46013 17.0431 4.73599 16.319C4.01185 15.5948 3.44289 14.7575 3.02909 13.8071C2.62177 12.8502 2.4181 11.8254 2.4181 10.7328ZM4.48384 10.7328C4.48384 11.5409 4.63254 12.2974 4.92996 13.0022C5.23384 13.7069 5.65409 14.3276 6.19073 14.8642C6.72737 15.3944 7.34806 15.8114 8.0528 16.1153C8.75754 16.4192 9.51078 16.5711 10.3125 16.5711C11.1207 16.5711 11.8772 16.4192 12.5819 16.1153C13.2866 15.8114 13.9041 15.3944 14.4343 14.8642C14.9709 14.3276 15.3912 13.7069 15.695 13.0022C15.9989 12.2974 16.1509 11.5409 16.1509 10.7328C16.1509 9.93103 15.9989 9.1778 15.695 8.47306C15.3912 7.76832 14.9709 7.14763 14.4343 6.61099C13.9041 6.07435 13.2866 5.65733 12.5819 5.35991C11.8772 5.05604 11.1207 4.9041 10.3125 4.9041C9.51078 4.9041 8.75754 5.05604 8.0528 5.35991C7.34806 5.65733 6.72737 6.07435 6.19073 6.61099C5.65409 7.14763 5.23384 7.76832 4.92996 8.47306C4.63254 9.1778 4.48384 9.93103 4.48384 10.7328Z" fill="#966E57"/>
</svg>
