<svg width="16" height="16" viewBox="0 0 16 16" fill="none" xmlns="http://www.w3.org/2000/svg">
<path d="M0.561423 15.4461C0.445043 15.3362 0.367457 15.2069 0.328664 15.0582C0.296337 14.9095 0.299569 14.7608 0.338362 14.6121C0.377156 14.4634 0.451509 14.3341 0.561423 14.2241L6.76832 8.00754L0.561423 1.80065C0.451509 1.69073 0.377156 1.56142 0.338362 1.41272C0.306035 1.26401 0.306035 1.1153 0.338362 0.966595C0.377156 0.817888 0.451509 0.688578 0.561423 0.578664C0.671337 0.462285 0.800647 0.387932 0.949354 0.355604C1.09806 0.316811 1.24677 0.316811 1.39547 0.355604C1.55065 0.387932 1.68319 0.462285 1.7931 0.578664L8 6.78556L14.2069 0.578664C14.3168 0.462285 14.4461 0.387932 14.5948 0.355604C14.7435 0.316811 14.8922 0.316811 15.0409 0.355604C15.1897 0.387932 15.3222 0.462285 15.4386 0.578664C15.5485 0.688578 15.6228 0.817888 15.6616 0.966595C15.7004 1.1153 15.7004 1.26401 15.6616 1.41272C15.6228 1.56142 15.5485 1.69073 15.4386 1.80065L9.23168 8.00754L15.4386 14.2241C15.5485 14.3341 15.6196 14.4634 15.6519 14.6121C15.6907 14.7608 15.6907 14.9095 15.6519 15.0582C15.6196 15.2069 15.5485 15.3362 15.4386 15.4461C15.3287 15.5625 15.1961 15.6369 15.0409 15.6692C14.8922 15.708 14.7435 15.708 14.5948 15.6692C14.4461 15.6304 14.3168 15.556 14.2069 15.4461L8 9.23922L1.7931 15.4461C1.68319 15.556 1.55388 15.6304 1.40517 15.6692C1.25647 15.708 1.10776 15.708 0.959052 15.6692C0.810345 15.6304 0.677802 15.556 0.561423 15.4461Z" fill="black"/>
</svg>
